<?xml version="1.0" encoding="UTF-8"?>
<svg id="Layer_2" data-name="Layer 2" xmlns="http://www.w3.org/2000/svg" viewBox="0 0 458.8 104">
  <defs>
    <style>
      .cls-1 {
        fill: #f59f0d;
      }

      .cls-2 {
        fill: #33bc90;
      }
    </style>
  </defs>
  <g id="Layer_1-2" data-name="Layer 1">
    <g>
      <path class="cls-2" d="m36.9,8.17v.06c0-.36.07-.66.21-.91.14-.24.43-.46.88-.66L51.45.26c.56-.32.97-.34,1.21-.06.24.28.36.79.36,1.51v20.89h13.28c.85,0,1.27.62,1.27,1.87v11.29c0,1.17-.44,1.75-1.33,1.75h-13.22v23.06c0,4.75,1.95,7.12,5.86,7.12,1.25,0,2.47-.23,3.65-.69,1.19-.46,2.3-1.2,3.35-2.2l1.45-.36c.44.32.6.81.48,1.45l-1.75,12.32c-.16.44-.37.8-.63,1.06-.26.26-.59.55-1,.88-1.41.97-3.04,1.67-4.89,2.11-1.85.44-3.95.66-6.28.66-4.95,0-8.94-1.65-11.96-4.95-2.94-3.34-4.41-7.65-4.41-12.92v-27.53h-8.63c-1.13,0-1.69-.58-1.69-1.75v-11.29c0-1.25.6-1.87,1.81-1.87h8.51v-14.43Z"/>
      <path class="cls-2" d="m286.35,8.17v.06c0-.36.07-.66.21-.91.14-.24.43-.46.88-.66l13.46-6.4c.56-.32.97-.34,1.21-.06.24.28.36.79.36,1.51v20.89h13.28c.85,0,1.27.62,1.27,1.87v11.29c0,1.17-.44,1.75-1.33,1.75h-13.22v23.06c0,4.75,1.95,7.12,5.86,7.12,1.25,0,2.47-.23,3.65-.69,1.19-.46,2.3-1.2,3.35-2.2l1.45-.36c.44.32.6.81.48,1.45l-1.75,12.32c-.16.44-.37.8-.63,1.06-.26.26-.59.55-1,.88-1.41.97-3.04,1.67-4.89,2.11-1.85.44-3.95.66-6.28.66-4.95,0-8.94-1.65-11.96-4.95-2.94-3.34-4.41-7.65-4.41-12.92v-27.53h-8.63c-1.13,0-1.69-.58-1.69-1.75v-11.29c0-1.25.6-1.87,1.81-1.87h8.51v-14.43Z"/>
      <path class="cls-1" d="m433.94,34.55c-.9.76-1.21,1.61-1.2,2.63"/>
      <path class="cls-2" d="m458.8,54.39c0,9.1-2.12,16.5-6.34,22.21-4.21,5.54-9.96,8.39-17.21,8.55l.57-10.16.27-5.08c.02-.44.29-.82.68-1.03,3.56-1.95,5.34-6.71,5.34-14.3v-.06c-.01-6.34-.98-10.85-2.91-13.52-1.9-2.85-4.93-4.27-9.06-4.27h-8.06l.02-11.54h0c-.04-1.08.83-1.98,1.91-1.98h6.13c4.13,0,7.88.72,11.25,2.17,3.37,1.45,6.44,3.58,9.21,6.39,5.46,5.83,8.2,13.38,8.2,22.64Z"/>
      <path class="cls-1" d="m431.6,68.58c-1.09-2.78-3.18-5.14-5.94-6.54l-4.66-2.35c-1.23-.63-2.01-1.9-2.03-3.3l.04-19.97.02-11.29c-.04-1.28-.55-1.94-1.29-1.94-.43,0-.94.23-1.48.68l-12.74,10.68c-.9.76-1.21,1.61-1.2,2.63v36.84l-.12,28.3c0,1.58.59,2.04,1.76,1.39l13.71-6.43c.29-.2.51-.41.67-.63.16-.23.24-.54.24-.95v-15.43h0c0-.3.1-.56.28-.77.33-.41.94-.6,1.49-.33l9,4.56,2.48,1.26.07-1.19.56-9.94c.1-1.84-.2-3.63-.86-5.28Z"/>
      <path class="cls-1" d="m9.29,18.34v.06c-2.59,0-4.77-.89-6.55-2.67-1.82-1.66-2.73-3.8-2.73-6.43,0-1.21.22-2.36.67-3.43.44-1.07,1.13-2.05,2.06-2.94C4.63,1.1,6.82.19,9.29.19s4.61.91,6.55,2.73c1.82,1.82,2.73,3.94,2.73,6.37,0,2.55-.91,4.69-2.73,6.43-1.82,1.78-4,2.67-6.55,2.67v-.06Z"/>
      <path class="cls-2" d="m.85,25.07c0-.61.15-1.05.46-1.33.3-.28.68-.42,1.12-.42h13.11c1.09,0,1.64.59,1.64,1.76v55.95c0,1.13-.55,1.7-1.64,1.7H2.43c-.45,0-.82-.13-1.12-.39-.3-.26-.46-.7-.46-1.3V25.07Z"/>
      <path class="cls-1" d="m85.84,18.34v.06c-2.59,0-4.77-.89-6.55-2.67-1.82-1.66-2.73-3.8-2.73-6.43,0-1.21.22-2.36.67-3.43.44-1.07,1.13-2.05,2.06-2.94,1.9-1.82,4.09-2.73,6.55-2.73s4.61.91,6.55,2.73c1.82,1.82,2.73,3.94,2.73,6.37,0,2.55-.91,4.69-2.73,6.43-1.82,1.78-4,2.67-6.55,2.67v-.06Z"/>
      <path class="cls-2" d="m77.4,25.07c0-.61.15-1.05.46-1.33.3-.28.68-.42,1.12-.42h13.11c1.09,0,1.64.59,1.64,1.76v55.95c0,1.13-.55,1.7-1.64,1.7h-13.11c-.45,0-.82-.13-1.12-.39-.3-.26-.46-.7-.46-1.3V25.07Z"/>
      <path class="cls-2" d="m112.52,23.25l18.21.06c7.4,0,13.27,1.62,17.6,4.85,5.46,4,8.19,10.28,8.19,18.81v34.04c0,1.13-.57,1.7-1.7,1.7h-13.11c-1.01,0-1.52-.57-1.52-1.7v-32.1c0-2.1-.22-3.92-.67-5.46-.45-1.54-1.17-2.73-2.18-3.58-1.78-1.5-4.47-2.27-8.07-2.31h-9.53v43.45c0,1.13-.57,1.7-1.7,1.7h-12.93c-1.17,0-1.76-.57-1.76-1.7v-47.58c0-6.76,3.05-10.13,9.16-10.13v-.06Z"/>
      <path class="cls-2" d="m181.59,58.21v.12c.49,7.12,4.65,10.68,12.5,10.68,4,0,7.24-1.11,9.71-3.34l1.94-.06,9.1,7.77c.81.69.85,1.36.12,2-5.42,5.7-12.38,8.56-20.88,8.56s-15.86-2.79-21.12-8.37c-2.55-2.83-4.48-6.12-5.8-9.86-1.31-3.74-1.97-7.94-1.97-12.59s.66-8.67,1.97-12.41c1.31-3.74,3.25-7.07,5.8-9.98,5.22-5.83,11.71-8.74,19.48-8.74s14.46,3.24,19.12,9.71c2.39,3.2,4.11,6.79,5.16,10.77,1.05,3.99,1.48,8.43,1.27,13.32-.08,1.7-.87,2.55-2.37,2.55h-34.04v-.12Zm20.94-11.23c-.81-7.52-4.43-11.29-10.86-11.29-1.46,0-2.75.28-3.88.85-1.13.57-2.16,1.4-3.09,2.49-.85,1.05-1.52,2.24-2,3.55-.49,1.31-.77,2.78-.85,4.4h20.69Z"/>
      <path class="cls-2" d="m236.54,23.31l8.19.06c12.22,0,19.42,1.09,21.6,3.28.65.69.85,1.46.61,2.31l-2.67,11.23c-.24,1.17-1.05,1.38-2.43.61l-5.58-1.27-8.37-.79h0c-2.25,0-4.07,1.82-4.07,4.07v38.23c0,1.13-.55,1.7-1.64,1.7h-13.17c-.45,0-.82-.13-1.12-.39-.3-.26-.46-.7-.46-1.3v-47.58c0-6.71,3.03-10.07,9.1-10.07v-.06Z"/>
      <path class="cls-2" d="m335.72,23.31l8.19.06c12.22,0,19.42,1.09,21.6,3.28.65.69.85,1.46.61,2.31l-2.67,11.23c-.24,1.17-1.05,1.38-2.43.61l-5.58-1.27-8.38-.79h0c-2.25,0-4.07,1.82-4.07,4.07v38.23c0,1.13-.55,1.7-1.64,1.7h-13.17c-.45,0-.82-.13-1.12-.39-.3-.26-.46-.7-.46-1.3v-47.58c0-6.71,3.03-10.07,9.1-10.07v-.06Z"/>
      <path class="cls-1" d="m384.52,18.34v.06c-2.59,0-4.77-.89-6.55-2.67-1.82-1.66-2.73-3.8-2.73-6.43,0-1.21.22-2.36.67-3.43.45-1.07,1.13-2.05,2.06-2.94,1.9-1.82,4.09-2.73,6.55-2.73s4.61.91,6.55,2.73c1.82,1.82,2.73,3.94,2.73,6.37,0,2.55-.91,4.69-2.73,6.43-1.82,1.78-4.01,2.67-6.55,2.67v-.06Z"/>
      <path class="cls-2" d="m376.09,25.07c0-.61.15-1.05.46-1.33.3-.28.68-.42,1.12-.42h13.11c1.09,0,1.64.59,1.64,1.76v55.95c0,1.13-.55,1.7-1.64,1.7h-13.11c-.45,0-.82-.13-1.12-.39-.3-.26-.46-.7-.46-1.3V25.07Z"/>
    </g>
  </g>
</svg>